<!-- svgs.svg -->
<svg xmlns="http://www.w3.org/2000/svg" style="display: none;">
    <symbol id="username-icon" viewBox="0 0 20 20">
        <!-- Your send icon SVG code here -->
        <svg
      version="1.1"
      class="w-6 h-6 mb-2 mr-2"
      xmlns="http://www.w3.org/2000/svg"
      xmlns:xlink="http://www.w3.org/1999/xlink"
      x="0px"
      y="0px"
      viewBox="0 0 107.294 107.294"
      style="enable-background:new 0 0 107.294 107.294;"
      xml:space="preserve"
    >
<g>
	<path
          style="fill-rule:evenodd;clip-rule:evenodd;fill:#4D1B02;"
          d="M16.474,72.538c2.428,6.068,23.046,8.401,9.78-25.005
		C10.769,8.535,39.933-4.697,53.901,1.43c16.731-5.558,37.242,11.894,27.953,46.103c-9.418,34.688,8.883,30.553,11.311,24.484
		C75.895,116.414,34.095,116.935,16.474,72.538z"
        />
	<path
          style="fill-rule:evenodd;clip-rule:evenodd;fill:#FFDECC;"
          d="M63.315,66.849c-0.198,0.312-19.745,0.623-19.961,0.932
		c-6.14,8.758-19.404,12.595-29.951,14.953C2.906,85.081,2.5,98.414,2.484,107.294H104.81c-0.017-8.88-0.211-22.165-10.92-24.56
		C83.182,80.339,69.14,76.005,63.315,66.849z"
        />
	<path
          style="fill-rule:evenodd;clip-rule:evenodd;fill:#FFDECC;"
          d="M63.898,48.145v25.117c-5.639,7.411-14.865,7.155-20.503,0
		V48.145C43.395,34.582,63.898,34.582,63.898,48.145z"
        />
	<path
          style="fill-rule:evenodd;clip-rule:evenodd;fill:#F7C5AA;"
          d="M63.898,48.145V64.96c-3.88,3.035-7.618,4.735-10.252,4.735
		c-2.633,0-6.372-1.7-10.251-4.735V48.145C43.395,34.582,63.898,34.582,63.898,48.145z"
        />
	<path
          style="fill-rule:evenodd;clip-rule:evenodd;fill:#FFDECC;"
          d="M53.646,65.519c-6.675,0-20.775-10.494-25.134-25.524
		C24.11,24.818,32.399,3.051,53.646,3.051s29.537,21.767,25.135,36.944C74.421,55.025,60.321,65.519,53.646,65.519z"
        />
	<path
          style="fill-rule:evenodd;clip-rule:evenodd;fill:#FF386A;"
          d="M45.983,50.388c3.402-3.293,6.055-0.823,8.041-0.823
		c1.986,0,4.639-2.47,8.041,0.823C60.237,59.072,48.408,59.338,45.983,50.388z"
        />
	<path
          style="fill-rule:evenodd;clip-rule:evenodd;fill:#FF386A;"
          d="M3.351,95.287c-0.789,4.046-0.859,8.395-0.866,12.007H104.81
		c-0.007-3.616-0.043-7.963-0.807-12.007H3.351z"
        />
	<path
          style="fill-rule:evenodd;clip-rule:evenodd;fill:#C9204A;"
          d="M45.984,50.388c3.401-3.293,6.054-0.823,8.04-0.823
		c1.986,0,4.64-2.47,8.041,0.823C56.864,52.95,49.485,51.753,45.984,50.388z"
        />
	<path
          style="fill-rule:evenodd;clip-rule:evenodd;fill:#4D1B02;"
          d="M26.255,24.637c0.941-30.783,54.538-27.899,54.783,0
		C65.27,28.422,39.858,27.802,26.255,24.637z"
        />
	
		<ellipse
          transform="matrix(-0.3946 -0.9188 0.9188 -0.3946 3.1149 77.1724)"
          style="fill-rule:evenodd;clip-rule:evenodd;fill:#FFDECC;"
          cx="26.98"
          cy="37.56"
          rx="7.316"
          ry="4.232"
        />
	
		<ellipse
          transform="matrix(0.3946 -0.9188 0.9188 0.3946 14.1926 96.6617)"
          style="fill-rule:evenodd;clip-rule:evenodd;fill:#FFDECC;"
          cx="80.453"
          cy="37.56"
          rx="7.316"
          ry="4.232"
        />
	<path
          style="fill-rule:evenodd;clip-rule:evenodd;fill:#4D1B02;"
          d="M67.599,18.236c10.794,6.878,11.427,16.116,11.869,23.255
		C84.32,35.443,84.738,14.029,67.599,18.236z"
        />
	<path
          style="fill-rule:evenodd;clip-rule:evenodd;fill:#4D1B02;"
          d="M39.851,18.236c-10.795,6.878-11.428,16.116-11.869,23.255
		C23.128,35.443,22.71,14.029,39.851,18.236z"
        />
	<g>
		<path
            style="fill-rule:evenodd;clip-rule:evenodd;fill:#C21842;"
            d="M20.793,107.294c0.063-2.012,0.246-4.434,0.731-7.387
			c-0.906,2.879-1.549,5.289-2.001,7.387H20.793z"
          />
		<path
            style="fill-rule:evenodd;clip-rule:evenodd;fill:#C21842;"
            d="M86.501,107.294c-0.063-2.012-0.246-4.434-0.731-7.387
			c0.907,2.879,1.549,5.289,2.001,7.387H86.501z"
          />
	</g>
</g>
</svg>
    </symbol>
    <!-- Add other symbols here -->
	<symbol id="logo-icon" viewBox="0 0 135 34">
	<svg
      xmlns="http://www.w3.org/2000/svg"
      width="135"
      height="34"
      viewBox="0 0 135 34"
      fill="none"
    >
                        <mask
        id="path-1-outside-1_14_34"
        maskUnits="userSpaceOnUse"
        x="41.5301"
        y="4.10495"
        width="94"
        height="25"
        fill="black"
      >
                            <rect
          fill="white"
          x="41.5301"
          y="4.10495"
          width="94"
          height="25"
        />
                            <path
          d="M58.4136 6.4227C58.3509 9.74844 58.3195 12.4937 58.3195 14.6586C58.3195 16.7921 58.3509 19.5374 58.4136 22.8945H55.9899C56.0527 20.761 56.0841 18.1334 56.0841 15.0116C56.0841 12.4702 56.0605 10.0857 56.0135 7.8581L49.9189 22.8945H49.2129C48.3501 20.6355 46.9775 17.2314 45.095 12.682C43.9969 10.0465 43.3223 8.40716 43.0713 7.76397V22.8945H42.5301V6.4227H45.1421C45.9264 8.52481 46.6637 10.4308 47.354 12.1408C48.0599 13.8507 48.9619 15.9999 50.0601 18.5883C50.1228 18.7452 50.2013 18.9256 50.2954 19.1295C50.3895 19.3335 50.4836 19.5609 50.5778 19.8119L55.9899 6.46976V6.4227H58.4136Z"
        />
                            <path
          d="M67.541 22.2592C68.5607 22.2592 69.3921 22.0003 70.0353 21.4827C70.6785 20.9493 71.1099 20.2982 71.3295 19.5296H71.6825C71.4472 20.4081 70.9608 21.1767 70.2235 21.8356C69.4862 22.4788 68.5058 22.8553 67.2821 22.9651C66.9056 22.9965 66.6311 23.0122 66.4585 23.0122C65.1408 23.0122 64.0113 22.7376 63.0701 22.1886C62.1445 21.6238 61.4464 20.8944 60.9758 20.0002C60.5208 19.0903 60.2934 18.1177 60.2934 17.0823C60.2934 16.0313 60.5287 15.043 60.9993 14.1174C61.4856 13.1761 62.1994 12.4153 63.1406 11.8349C64.0976 11.2544 65.2349 10.9642 66.5527 10.9642C67.7449 10.9642 68.7254 11.1995 69.4941 11.6701C70.2628 12.1408 70.8197 12.7212 71.1648 13.4115C71.5256 14.086 71.706 14.7527 71.706 15.4116L71.7295 15.8587L62.5053 16.3293C62.4896 17.3333 62.67 18.2903 63.0465 19.2001C63.423 20.11 63.9956 20.8473 64.7643 21.4121C65.533 21.9768 66.4585 22.2592 67.541 22.2592ZM66.6468 11.2701C65.4389 11.2701 64.4741 11.7172 63.7525 12.6114C63.0308 13.4899 62.623 14.5802 62.5288 15.8822L70.0588 15.5057C70.0588 14.7214 69.847 13.8272 69.4235 12.8232C69.0156 11.8035 68.09 11.2858 66.6468 11.2701Z"
        />
                            <path
          d="M80.6624 22.2592C81.682 22.2592 82.5135 22.0003 83.1567 21.4827C83.7999 20.9493 84.2313 20.2982 84.4509 19.5296H84.8039C84.5685 20.4081 84.0822 21.1767 83.3449 21.8356C82.6076 22.4788 81.6271 22.8553 80.4035 22.9651C80.027 22.9965 79.7525 23.0122 79.5799 23.0122C78.2622 23.0122 77.1327 22.7376 76.1914 22.1886C75.2659 21.6238 74.5678 20.8944 74.0972 20.0002C73.6422 19.0903 73.4148 18.1177 73.4148 17.0823C73.4148 16.0313 73.6501 15.043 74.1207 14.1174C74.607 13.1761 75.3208 12.4153 76.262 11.8349C77.219 11.2544 78.3563 10.9642 79.6741 10.9642C80.8663 10.9642 81.8468 11.1995 82.6155 11.6701C83.3841 12.1408 83.941 12.7212 84.2862 13.4115C84.647 14.086 84.8274 14.7527 84.8274 15.4116L84.8509 15.8587L75.6267 16.3293C75.611 17.3333 75.7914 18.2903 76.1679 19.2001C76.5444 20.11 77.117 20.8473 77.8857 21.4121C78.6544 21.9768 79.5799 22.2592 80.6624 22.2592ZM79.7682 11.2701C78.5602 11.2701 77.5955 11.7172 76.8738 12.6114C76.1522 13.4899 75.7444 14.5802 75.6502 15.8822L83.1802 15.5057C83.1802 14.7214 82.9684 13.8272 82.5449 12.8232C82.137 11.8035 81.2114 11.2858 79.7682 11.2701Z"
        />
                            <path
          d="M92.1472 11.5525H88.8999L88.8764 19.4354C88.8764 20.2669 88.9156 20.9022 88.9941 21.3415C89.0882 21.765 89.2843 22.0788 89.5823 22.2827C89.8961 22.4866 90.3746 22.5808 91.0177 22.5651V22.8945C90.0451 22.9259 89.2451 22.8631 88.6176 22.7063C87.9901 22.5494 87.4959 22.2121 87.1351 21.6944C86.7743 21.1767 86.5939 20.4159 86.5939 19.4119V11.5525H85.1114V11.1525H86.5939V8.09341L88.9235 6.58741L88.8999 11.1525H92.1472V11.5525Z"
        />
                            <path
          d="M103.651 22.8945C103.212 21.6082 102.631 20.0002 101.91 18.0706C101.847 17.851 101.761 17.6 101.651 17.3176H95.6738L93.6736 22.8945H93.0854L98.9682 6.4227H100.074C102.506 13.184 104.576 18.6746 106.286 22.8945H103.651ZM95.862 16.7764H101.439C100.623 14.5645 99.6662 12.031 98.5681 9.17585L95.862 16.7764Z"
        />
                            <path
          d="M115.935 11.1289L111.675 22.471L111.534 22.8004L111.511 22.8945L109.063 28.895L107.863 28.8714C108.052 28.4636 108.459 27.6714 109.087 26.4948C109.338 26.0085 109.62 25.4516 109.934 24.8241C110.248 24.2123 110.569 23.5691 110.899 22.8945H110.687C109.558 19.8982 107.934 15.9685 105.816 11.1054H108.216C109.048 13.2546 110.052 15.7332 111.228 18.5413C111.369 18.9178 111.597 19.4825 111.911 20.2355L115.323 11.1289H115.935Z"
        />
                            <path
          d="M120.259 5.10495C120.196 7.31688 120.165 10.2818 120.165 13.9997C120.165 17.6863 120.196 20.6512 120.259 22.8945H117.811C117.89 20.1022 117.929 17.1372 117.929 13.9997C117.929 10.8466 117.89 7.88163 117.811 5.10495H120.259Z"
        />
                            <path
          d="M133.568 18.8707C133.568 19.9531 133.591 20.7297 133.638 21.2003C133.685 21.6709 133.795 22.0003 133.968 22.1886C134.14 22.3768 134.423 22.471 134.815 22.471V22.8945C134.658 22.9102 134.431 22.9181 134.133 22.9181C133.348 22.9181 132.752 22.7926 132.344 22.5416C131.936 22.2906 131.67 21.969 131.544 21.5768C131.434 21.1846 131.372 20.6904 131.356 20.0943C130.995 20.7846 130.375 21.4513 129.497 22.0945C128.618 22.722 127.403 23.02 125.85 22.9886C125.097 22.973 124.438 22.8004 123.873 22.471C123.308 22.1415 122.877 21.7101 122.579 21.1767C122.281 20.6434 122.132 20.0708 122.132 19.459C122.132 18.7373 122.343 18.0549 122.767 17.4118C123.206 16.7686 123.857 16.2509 124.72 15.8587C125.724 15.4038 126.728 15.0979 127.732 14.941C128.736 14.7684 129.905 14.6508 131.238 14.588C131.097 13.5056 130.791 12.6898 130.321 12.1408C129.85 11.576 129.175 11.2937 128.297 11.2937C127.607 11.2937 127.018 11.4897 126.532 11.8819C126.046 12.2741 125.693 12.7526 125.473 13.3173L123.732 13.2938C123.983 12.6506 124.477 12.1094 125.214 11.6701C125.967 11.2309 126.956 11.0113 128.179 11.0113C130.046 11.0113 131.403 11.4819 132.25 12.4231C133.113 13.3487 133.552 14.7135 133.568 16.5176V18.8707ZM127.426 22.118C128.493 22.118 129.34 21.8278 129.968 21.2473C130.611 20.6512 131.074 20.0316 131.356 19.3884V16.8941C131.356 16.094 131.325 15.4195 131.262 14.8704C130.038 14.9645 129.066 15.0743 128.344 15.1998C127.622 15.3096 126.901 15.5528 126.179 15.9293C125.583 16.2587 125.128 16.7137 124.814 17.2941C124.5 17.8588 124.344 18.455 124.344 19.0825C124.344 19.9296 124.618 20.6512 125.167 21.2473C125.716 21.8278 126.469 22.118 127.426 22.118Z"
        />
                        </mask>
                        <path
        d="M58.4136 6.4227C58.3509 9.74844 58.3195 12.4937 58.3195 14.6586C58.3195 16.7921 58.3509 19.5374 58.4136 22.8945H55.9899C56.0527 20.761 56.0841 18.1334 56.0841 15.0116C56.0841 12.4702 56.0605 10.0857 56.0135 7.8581L49.9189 22.8945H49.2129C48.3501 20.6355 46.9775 17.2314 45.095 12.682C43.9969 10.0465 43.3223 8.40716 43.0713 7.76397V22.8945H42.5301V6.4227H45.1421C45.9264 8.52481 46.6637 10.4308 47.354 12.1408C48.0599 13.8507 48.9619 15.9999 50.0601 18.5883C50.1228 18.7452 50.2013 18.9256 50.2954 19.1295C50.3895 19.3335 50.4836 19.5609 50.5778 19.8119L55.9899 6.46976V6.4227H58.4136Z"
        fill="white"
      />
                        <path
        d="M67.541 22.2592C68.5607 22.2592 69.3921 22.0003 70.0353 21.4827C70.6785 20.9493 71.1099 20.2982 71.3295 19.5296H71.6825C71.4472 20.4081 70.9608 21.1767 70.2235 21.8356C69.4862 22.4788 68.5058 22.8553 67.2821 22.9651C66.9056 22.9965 66.6311 23.0122 66.4585 23.0122C65.1408 23.0122 64.0113 22.7376 63.0701 22.1886C62.1445 21.6238 61.4464 20.8944 60.9758 20.0002C60.5208 19.0903 60.2934 18.1177 60.2934 17.0823C60.2934 16.0313 60.5287 15.043 60.9993 14.1174C61.4856 13.1761 62.1994 12.4153 63.1406 11.8349C64.0976 11.2544 65.2349 10.9642 66.5527 10.9642C67.7449 10.9642 68.7254 11.1995 69.4941 11.6701C70.2628 12.1408 70.8197 12.7212 71.1648 13.4115C71.5256 14.086 71.706 14.7527 71.706 15.4116L71.7295 15.8587L62.5053 16.3293C62.4896 17.3333 62.67 18.2903 63.0465 19.2001C63.423 20.11 63.9956 20.8473 64.7643 21.4121C65.533 21.9768 66.4585 22.2592 67.541 22.2592ZM66.6468 11.2701C65.4389 11.2701 64.4741 11.7172 63.7525 12.6114C63.0308 13.4899 62.623 14.5802 62.5288 15.8822L70.0588 15.5057C70.0588 14.7214 69.847 13.8272 69.4235 12.8232C69.0156 11.8035 68.09 11.2858 66.6468 11.2701Z"
        fill="white"
      />
                        <path
        d="M80.6624 22.2592C81.682 22.2592 82.5135 22.0003 83.1567 21.4827C83.7999 20.9493 84.2313 20.2982 84.4509 19.5296H84.8039C84.5685 20.4081 84.0822 21.1767 83.3449 21.8356C82.6076 22.4788 81.6271 22.8553 80.4035 22.9651C80.027 22.9965 79.7525 23.0122 79.5799 23.0122C78.2622 23.0122 77.1327 22.7376 76.1914 22.1886C75.2659 21.6238 74.5678 20.8944 74.0972 20.0002C73.6422 19.0903 73.4148 18.1177 73.4148 17.0823C73.4148 16.0313 73.6501 15.043 74.1207 14.1174C74.607 13.1761 75.3208 12.4153 76.262 11.8349C77.219 11.2544 78.3563 10.9642 79.6741 10.9642C80.8663 10.9642 81.8468 11.1995 82.6155 11.6701C83.3841 12.1408 83.941 12.7212 84.2862 13.4115C84.647 14.086 84.8274 14.7527 84.8274 15.4116L84.8509 15.8587L75.6267 16.3293C75.611 17.3333 75.7914 18.2903 76.1679 19.2001C76.5444 20.11 77.117 20.8473 77.8857 21.4121C78.6544 21.9768 79.5799 22.2592 80.6624 22.2592ZM79.7682 11.2701C78.5602 11.2701 77.5955 11.7172 76.8738 12.6114C76.1522 13.4899 75.7444 14.5802 75.6502 15.8822L83.1802 15.5057C83.1802 14.7214 82.9684 13.8272 82.5449 12.8232C82.137 11.8035 81.2114 11.2858 79.7682 11.2701Z"
        fill="white"
      />
                        <path
        d="M92.1472 11.5525H88.8999L88.8764 19.4354C88.8764 20.2669 88.9156 20.9022 88.9941 21.3415C89.0882 21.765 89.2843 22.0788 89.5823 22.2827C89.8961 22.4866 90.3746 22.5808 91.0177 22.5651V22.8945C90.0451 22.9259 89.2451 22.8631 88.6176 22.7063C87.9901 22.5494 87.4959 22.2121 87.1351 21.6944C86.7743 21.1767 86.5939 20.4159 86.5939 19.4119V11.5525H85.1114V11.1525H86.5939V8.09341L88.9235 6.58741L88.8999 11.1525H92.1472V11.5525Z"
        fill="white"
      />
                        <path
        d="M103.651 22.8945C103.212 21.6082 102.631 20.0002 101.91 18.0706C101.847 17.851 101.761 17.6 101.651 17.3176H95.6738L93.6736 22.8945H93.0854L98.9682 6.4227H100.074C102.506 13.184 104.576 18.6746 106.286 22.8945H103.651ZM95.862 16.7764H101.439C100.623 14.5645 99.6662 12.031 98.5681 9.17585L95.862 16.7764Z"
        fill="white"
      />
                        <path
        d="M115.935 11.1289L111.675 22.471L111.534 22.8004L111.511 22.8945L109.063 28.895L107.863 28.8714C108.052 28.4636 108.459 27.6714 109.087 26.4948C109.338 26.0085 109.62 25.4516 109.934 24.8241C110.248 24.2123 110.569 23.5691 110.899 22.8945H110.687C109.558 19.8982 107.934 15.9685 105.816 11.1054H108.216C109.048 13.2546 110.052 15.7332 111.228 18.5413C111.369 18.9178 111.597 19.4825 111.911 20.2355L115.323 11.1289H115.935Z"
        fill="white"
      />
                        <path
        d="M120.259 5.10495C120.196 7.31688 120.165 10.2818 120.165 13.9997C120.165 17.6863 120.196 20.6512 120.259 22.8945H117.811C117.89 20.1022 117.929 17.1372 117.929 13.9997C117.929 10.8466 117.89 7.88163 117.811 5.10495H120.259Z"
        fill="white"
      />
                        <path
        d="M133.568 18.8707C133.568 19.9531 133.591 20.7297 133.638 21.2003C133.685 21.6709 133.795 22.0003 133.968 22.1886C134.14 22.3768 134.423 22.471 134.815 22.471V22.8945C134.658 22.9102 134.431 22.9181 134.133 22.9181C133.348 22.9181 132.752 22.7926 132.344 22.5416C131.936 22.2906 131.67 21.969 131.544 21.5768C131.434 21.1846 131.372 20.6904 131.356 20.0943C130.995 20.7846 130.375 21.4513 129.497 22.0945C128.618 22.722 127.403 23.02 125.85 22.9886C125.097 22.973 124.438 22.8004 123.873 22.471C123.308 22.1415 122.877 21.7101 122.579 21.1767C122.281 20.6434 122.132 20.0708 122.132 19.459C122.132 18.7373 122.343 18.0549 122.767 17.4118C123.206 16.7686 123.857 16.2509 124.72 15.8587C125.724 15.4038 126.728 15.0979 127.732 14.941C128.736 14.7684 129.905 14.6508 131.238 14.588C131.097 13.5056 130.791 12.6898 130.321 12.1408C129.85 11.576 129.175 11.2937 128.297 11.2937C127.607 11.2937 127.018 11.4897 126.532 11.8819C126.046 12.2741 125.693 12.7526 125.473 13.3173L123.732 13.2938C123.983 12.6506 124.477 12.1094 125.214 11.6701C125.967 11.2309 126.956 11.0113 128.179 11.0113C130.046 11.0113 131.403 11.4819 132.25 12.4231C133.113 13.3487 133.552 14.7135 133.568 16.5176V18.8707ZM127.426 22.118C128.493 22.118 129.34 21.8278 129.968 21.2473C130.611 20.6512 131.074 20.0316 131.356 19.3884V16.8941C131.356 16.094 131.325 15.4195 131.262 14.8704C130.038 14.9645 129.066 15.0743 128.344 15.1998C127.622 15.3096 126.901 15.5528 126.179 15.9293C125.583 16.2587 125.128 16.7137 124.814 17.2941C124.5 17.8588 124.344 18.455 124.344 19.0825C124.344 19.9296 124.618 20.6512 125.167 21.2473C125.716 21.8278 126.469 22.118 127.426 22.118Z"
        fill="white"
      />
                        <path
        d="M58.4136 6.4227C58.3509 9.74844 58.3195 12.4937 58.3195 14.6586C58.3195 16.7921 58.3509 19.5374 58.4136 22.8945H55.9899C56.0527 20.761 56.0841 18.1334 56.0841 15.0116C56.0841 12.4702 56.0605 10.0857 56.0135 7.8581L49.9189 22.8945H49.2129C48.3501 20.6355 46.9775 17.2314 45.095 12.682C43.9969 10.0465 43.3223 8.40716 43.0713 7.76397V22.8945H42.5301V6.4227H45.1421C45.9264 8.52481 46.6637 10.4308 47.354 12.1408C48.0599 13.8507 48.9619 15.9999 50.0601 18.5883C50.1228 18.7452 50.2013 18.9256 50.2954 19.1295C50.3895 19.3335 50.4836 19.5609 50.5778 19.8119L55.9899 6.46976V6.4227H58.4136Z"
        stroke="white"
        stroke-width="0.331964"
        mask="url(#path-1-outside-1_14_34)"
      />
                        <path
        d="M67.541 22.2592C68.5607 22.2592 69.3921 22.0003 70.0353 21.4827C70.6785 20.9493 71.1099 20.2982 71.3295 19.5296H71.6825C71.4472 20.4081 70.9608 21.1767 70.2235 21.8356C69.4862 22.4788 68.5058 22.8553 67.2821 22.9651C66.9056 22.9965 66.6311 23.0122 66.4585 23.0122C65.1408 23.0122 64.0113 22.7376 63.0701 22.1886C62.1445 21.6238 61.4464 20.8944 60.9758 20.0002C60.5208 19.0903 60.2934 18.1177 60.2934 17.0823C60.2934 16.0313 60.5287 15.043 60.9993 14.1174C61.4856 13.1761 62.1994 12.4153 63.1406 11.8349C64.0976 11.2544 65.2349 10.9642 66.5527 10.9642C67.7449 10.9642 68.7254 11.1995 69.4941 11.6701C70.2628 12.1408 70.8197 12.7212 71.1648 13.4115C71.5256 14.086 71.706 14.7527 71.706 15.4116L71.7295 15.8587L62.5053 16.3293C62.4896 17.3333 62.67 18.2903 63.0465 19.2001C63.423 20.11 63.9956 20.8473 64.7643 21.4121C65.533 21.9768 66.4585 22.2592 67.541 22.2592ZM66.6468 11.2701C65.4389 11.2701 64.4741 11.7172 63.7525 12.6114C63.0308 13.4899 62.623 14.5802 62.5288 15.8822L70.0588 15.5057C70.0588 14.7214 69.847 13.8272 69.4235 12.8232C69.0156 11.8035 68.09 11.2858 66.6468 11.2701Z"
        stroke="white"
        stroke-width="0.331964"
        mask="url(#path-1-outside-1_14_34)"
      />
                        <path
        d="M80.6624 22.2592C81.682 22.2592 82.5135 22.0003 83.1567 21.4827C83.7999 20.9493 84.2313 20.2982 84.4509 19.5296H84.8039C84.5685 20.4081 84.0822 21.1767 83.3449 21.8356C82.6076 22.4788 81.6271 22.8553 80.4035 22.9651C80.027 22.9965 79.7525 23.0122 79.5799 23.0122C78.2622 23.0122 77.1327 22.7376 76.1914 22.1886C75.2659 21.6238 74.5678 20.8944 74.0972 20.0002C73.6422 19.0903 73.4148 18.1177 73.4148 17.0823C73.4148 16.0313 73.6501 15.043 74.1207 14.1174C74.607 13.1761 75.3208 12.4153 76.262 11.8349C77.219 11.2544 78.3563 10.9642 79.6741 10.9642C80.8663 10.9642 81.8468 11.1995 82.6155 11.6701C83.3841 12.1408 83.941 12.7212 84.2862 13.4115C84.647 14.086 84.8274 14.7527 84.8274 15.4116L84.8509 15.8587L75.6267 16.3293C75.611 17.3333 75.7914 18.2903 76.1679 19.2001C76.5444 20.11 77.117 20.8473 77.8857 21.4121C78.6544 21.9768 79.5799 22.2592 80.6624 22.2592ZM79.7682 11.2701C78.5602 11.2701 77.5955 11.7172 76.8738 12.6114C76.1522 13.4899 75.7444 14.5802 75.6502 15.8822L83.1802 15.5057C83.1802 14.7214 82.9684 13.8272 82.5449 12.8232C82.137 11.8035 81.2114 11.2858 79.7682 11.2701Z"
        stroke="white"
        stroke-width="0.331964"
        mask="url(#path-1-outside-1_14_34)"
      />
                        <path
        d="M92.1472 11.5525H88.8999L88.8764 19.4354C88.8764 20.2669 88.9156 20.9022 88.9941 21.3415C89.0882 21.765 89.2843 22.0788 89.5823 22.2827C89.8961 22.4866 90.3746 22.5808 91.0177 22.5651V22.8945C90.0451 22.9259 89.2451 22.8631 88.6176 22.7063C87.9901 22.5494 87.4959 22.2121 87.1351 21.6944C86.7743 21.1767 86.5939 20.4159 86.5939 19.4119V11.5525H85.1114V11.1525H86.5939V8.09341L88.9235 6.58741L88.8999 11.1525H92.1472V11.5525Z"
        stroke="white"
        stroke-width="0.331964"
        mask="url(#path-1-outside-1_14_34)"
      />
                        <path
        d="M103.651 22.8945C103.212 21.6082 102.631 20.0002 101.91 18.0706C101.847 17.851 101.761 17.6 101.651 17.3176H95.6738L93.6736 22.8945H93.0854L98.9682 6.4227H100.074C102.506 13.184 104.576 18.6746 106.286 22.8945H103.651ZM95.862 16.7764H101.439C100.623 14.5645 99.6662 12.031 98.5681 9.17585L95.862 16.7764Z"
        stroke="white"
        stroke-width="0.331964"
        mask="url(#path-1-outside-1_14_34)"
      />
                        <path
        d="M115.935 11.1289L111.675 22.471L111.534 22.8004L111.511 22.8945L109.063 28.895L107.863 28.8714C108.052 28.4636 108.459 27.6714 109.087 26.4948C109.338 26.0085 109.62 25.4516 109.934 24.8241C110.248 24.2123 110.569 23.5691 110.899 22.8945H110.687C109.558 19.8982 107.934 15.9685 105.816 11.1054H108.216C109.048 13.2546 110.052 15.7332 111.228 18.5413C111.369 18.9178 111.597 19.4825 111.911 20.2355L115.323 11.1289H115.935Z"
        stroke="white"
        stroke-width="0.331964"
        mask="url(#path-1-outside-1_14_34)"
      />
                        <path
        d="M120.259 5.10495C120.196 7.31688 120.165 10.2818 120.165 13.9997C120.165 17.6863 120.196 20.6512 120.259 22.8945H117.811C117.89 20.1022 117.929 17.1372 117.929 13.9997C117.929 10.8466 117.89 7.88163 117.811 5.10495H120.259Z"
        stroke="white"
        stroke-width="0.331964"
        mask="url(#path-1-outside-1_14_34)"
      />
                        <path
        d="M133.568 18.8707C133.568 19.9531 133.591 20.7297 133.638 21.2003C133.685 21.6709 133.795 22.0003 133.968 22.1886C134.14 22.3768 134.423 22.471 134.815 22.471V22.8945C134.658 22.9102 134.431 22.9181 134.133 22.9181C133.348 22.9181 132.752 22.7926 132.344 22.5416C131.936 22.2906 131.67 21.969 131.544 21.5768C131.434 21.1846 131.372 20.6904 131.356 20.0943C130.995 20.7846 130.375 21.4513 129.497 22.0945C128.618 22.722 127.403 23.02 125.85 22.9886C125.097 22.973 124.438 22.8004 123.873 22.471C123.308 22.1415 122.877 21.7101 122.579 21.1767C122.281 20.6434 122.132 20.0708 122.132 19.459C122.132 18.7373 122.343 18.0549 122.767 17.4118C123.206 16.7686 123.857 16.2509 124.72 15.8587C125.724 15.4038 126.728 15.0979 127.732 14.941C128.736 14.7684 129.905 14.6508 131.238 14.588C131.097 13.5056 130.791 12.6898 130.321 12.1408C129.85 11.576 129.175 11.2937 128.297 11.2937C127.607 11.2937 127.018 11.4897 126.532 11.8819C126.046 12.2741 125.693 12.7526 125.473 13.3173L123.732 13.2938C123.983 12.6506 124.477 12.1094 125.214 11.6701C125.967 11.2309 126.956 11.0113 128.179 11.0113C130.046 11.0113 131.403 11.4819 132.25 12.4231C133.113 13.3487 133.552 14.7135 133.568 16.5176V18.8707ZM127.426 22.118C128.493 22.118 129.34 21.8278 129.968 21.2473C130.611 20.6512 131.074 20.0316 131.356 19.3884V16.8941C131.356 16.094 131.325 15.4195 131.262 14.8704C130.038 14.9645 129.066 15.0743 128.344 15.1998C127.622 15.3096 126.901 15.5528 126.179 15.9293C125.583 16.2587 125.128 16.7137 124.814 17.2941C124.5 17.8588 124.344 18.455 124.344 19.0825C124.344 19.9296 124.618 20.6512 125.167 21.2473C125.716 21.8278 126.469 22.118 127.426 22.118Z"
        stroke="white"
        stroke-width="0.331964"
        mask="url(#path-1-outside-1_14_34)"
      />
                        <path
        d="M5.67979 14.4589C6.78673 16.8672 5.68749 20.9532 5.68749 20.9532C5.68749 20.9532 3.71366 17.6782 2.8092 15.2755C1.90473 12.8729 3.05037 8.64718 3.05037 8.64718C3.05037 8.64718 4.57285 12.0506 5.67979 14.4589Z"
        fill="#D9D9D9"
      />
                        <path
        d="M6.9544 22.8713C9.41121 23.8659 11.4117 27.5944 11.4117 27.5944C11.4117 27.5944 7.72967 26.5629 5.42415 25.4336C3.11864 24.3042 1.05611 20.4423 1.05611 20.4423C1.05611 20.4423 4.49759 21.8766 6.9544 22.8713Z"
        fill="#D9D9D9"
      />
                        <path
        d="M13.6856 27.7012C16.1086 26.6268 20.1794 27.781 20.1794 27.781C20.1794 27.781 16.8781 29.7105 14.4635 30.5825C12.0489 31.4545 7.839 30.2521 7.839 30.2521C7.839 30.2521 11.2626 28.7756 13.6856 27.7012Z"
        fill="#D9D9D9"
      />
                        <path
        d="M21.8802 26.2303C22.7386 23.7226 26.3518 21.5206 26.3518 21.5206C26.3518 21.5206 25.5238 25.2537 24.5226 27.6177C23.5213 29.9817 19.7783 32.2529 19.7783 32.2529C19.7783 32.2529 21.0217 28.7379 21.8802 26.2303Z"
        fill="#D9D9D9"
      />
                        <path
        d="M10.6081 7.77353C9.79387 10.2959 6.22004 12.5611 6.22004 12.5611C6.22004 12.5611 6.98221 8.81404 7.94167 6.43281C8.90113 4.05158 12.6037 1.71486 12.6037 1.71486C12.6037 1.71486 11.4222 5.25115 10.6081 7.77353Z"
        fill="#D9D9D9"
      />
                        <path
        d="M18.7708 6.22379C16.3389 7.27798 12.2779 6.08995 12.2779 6.08995C12.2779 6.08995 15.5951 4.18797 18.0169 3.33609C20.4387 2.4842 24.6385 3.72167 24.6385 3.72167C24.6385 3.72167 21.2027 5.16961 18.7708 6.22379Z"
        fill="#D9D9D9"
      />
                        <path
        d="M25.5514 11.4674C23.0471 10.5992 20.8591 6.97755 20.8591 6.97755C20.8591 6.97755 24.589 7.82 26.949 8.83038C29.3091 9.84076 31.5658 13.5926 31.5658 13.5926C31.5658 13.5926 28.0557 12.3355 25.5514 11.4674Z"
        fill="#D9D9D9"
      />
                        <path
        d="M26.9759 19.527C25.9072 17.1015 27.071 13.0334 27.071 13.0334C27.071 13.0334 28.9928 16.3393 29.8591 18.7559C30.7254 21.1726 29.513 25.3796 29.513 25.3796C29.513 25.3796 28.0446 21.9526 26.9759 19.527Z"
        fill="#D9D9D9"
      />
                    </svg>
	</symbol>

	<symbol id="icon-eye-open" viewBox="0 0 576 512">
        <path
      fill="currentColor"
      d="M572.52 241.4C518.29 135.59 410.93 64 288 64S57.68 135.64 3.48 241.41a32.35 32.35 0 0 0 0 29.19C57.71 376.41 165.07 448 288 448s230.32-71.64 284.52-177.41a32.35 32.35 0 0 0 0-29.19zM288 400a144 144 0 1 1 144-144 143.93 143.93 0 0 1-144 144zm0-240a95.31 95.31 0 0 0-25.31 3.79 47.85 47.85 0 0 1-66.9 66.9A95.78 95.78 0 1 0 288 160z"
    >
                                </path> <!-- SVG path data here -->
    </symbol>
    <symbol id="icon-eye-closed" viewBox="0 0 640 512">
       <path
      fill="currentColor"
      d="M320 400c-75.85 0-137.25-58.71-142.9-133.11L72.2 185.82c-13.79 17.3-26.48 35.59-36.72 55.59a32.35 32.35 0 0 0 0 29.19C89.71 376.41 197.07 448 320 448c26.91 0 52.87-4 77.89-10.46L346 397.39a144.13 144.13 0 0 1-26 2.61zm313.82 58.1l-110.55-85.44a331.25 331.25 0 0 0 81.25-102.07 32.35 32.35 0 0 0 0-29.19C550.29 135.59 442.93 64 320 64a308.15 308.15 0 0 0-147.32 37.7L45.46 3.37A16 16 0 0 0 23 6.18L3.37 31.45A16 16 0 0 0 6.18 53.9l588.36 454.73a16 16 0 0 0 22.46-2.81l19.64-25.27a16 16 0 0 0-2.82-22.45zm-183.72-142l-39.3-30.38A94.75 94.75 0 0 0 416 256a94.76 94.76 0 0 0-121.31-92.21A47.65 47.65 0 0 1 304 192a46.64 46.64 0 0 1-1.54 10l-73.61-56.89A142.31 142.31 0 0 1 320 112a143.92 143.92 0 0 1 144 144c0 21.63-5.29 41.79-13.9 60.11z"
    >
                                </path> <!-- SVG path data here -->
    </symbol>
	<symbol id="chat-icon" viewBox="0 0 20 20">
	 <path
      d="M4.16667 2.5V5.83333M2.5 4.16667H5.83333M5 14.1667V17.5M3.33333 15.8333H6.66667M10.8333 2.5L12.7381 8.21429L17.5 10L12.7381 11.7857L10.8333 17.5L8.92857 11.7857L4.16667 10L8.92857 8.21429L10.8333 2.5Z"
      stroke="white"
      stroke-width="1.66667"
      stroke-linecap="round"
      stroke-linejoin="round"
    />
	</symbol>
	<symbol id="ham-icon" viewBox="0 0 34 34">
	 <path
      fill-rule="evenodd"
      clip-rule="evenodd"
      d="M5.70947 8.32081C5.70947 7.40172 6.45454 6.65665 7.37363 6.65665L27.3436 6.65665C28.2626 6.65665 29.0077 7.40172 29.0077 8.32081C29.0077 9.2399 28.2626 9.98497 27.3436 9.98497L7.37363 9.98497C6.45454 9.98497 5.70947 9.2399 5.70947 8.32081Z"
      fill="white"
    />
                <path
      fill-rule="evenodd"
      clip-rule="evenodd"
      d="M5.70947 16.6416C5.70947 15.7225 6.45454 14.9774 7.37363 14.9774L27.3436 14.9774C28.2626 14.9774 29.0077 15.7225 29.0077 16.6416C29.0077 17.5607 28.2626 18.3058 27.3436 18.3058H7.37363C6.45454 18.3058 5.70947 17.5607 5.70947 16.6416Z"
      fill="white"
    />
                <path
      fill-rule="evenodd"
      clip-rule="evenodd"
      d="M5.70947 24.9624C5.70947 24.0433 6.45454 23.2982 7.37363 23.2982H27.3436C28.2626 23.2982 29.0077 24.0433 29.0077 24.9624C29.0077 25.8815 28.2626 26.6266 27.3436 26.6266H7.37363C6.45454 26.6266 5.70947 25.8815 5.70947 24.9624Z"
      fill="white"
    />
	</symbol>

	<symbol id="mid-icon" viewBox="0 0 74 74">
	              <path
      d="M13.3115 31.1594C15.7886 36.5489 13.3287 45.6927 13.3287 45.6927C13.3287 45.6927 8.91156 38.3637 6.88749 32.9869C4.86343 27.6101 7.42719 18.1536 7.42719 18.1536C7.42719 18.1536 10.8343 25.77 13.3115 31.1594Z"
      fill="url(#paint0_linear_16_26803)"
    />
                    <path
      d="M16.1636 49.9851C21.6615 52.211 26.1385 60.5548 26.1385 60.5548C26.1385 60.5548 17.8985 58.2465 12.7391 55.7192C7.57966 53.1919 2.96401 44.5493 2.96401 44.5493C2.96401 44.5493 10.6656 47.7592 16.1636 49.9851Z"
      fill="url(#paint1_linear_16_26803)"
    />
                    <path
      d="M31.2273 60.7938C36.6496 58.3895 45.7595 60.9724 45.7595 60.9724C45.7595 60.9724 38.3716 65.2904 32.968 67.2418C27.5644 69.1932 18.1433 66.5022 18.1433 66.5022C18.1433 66.5022 25.8049 63.1981 31.2273 60.7938Z"
      fill="url(#paint2_linear_16_26803)"
    />
                    <path
      d="M49.5656 57.502C51.4867 51.8903 59.5724 46.9625 59.5724 46.9625C59.5724 46.9625 57.7194 55.3167 55.4788 60.6069C53.2383 65.8972 44.8618 70.9798 44.8618 70.9798C44.8618 70.9798 47.6445 63.1138 49.5656 57.502Z"
      fill="url(#paint3_linear_16_26803)"
    />
                    <path
      d="M24.3403 16.1985C22.5183 21.8433 14.5205 26.9125 14.5205 26.9125C14.5205 26.9125 16.2262 18.527 18.3733 13.1982C20.5204 7.86933 28.8062 2.64007 28.8062 2.64007C28.8062 2.64007 26.1623 10.5538 24.3403 16.1985Z"
      fill="url(#paint4_linear_16_26803)"
    />
                    <path
      d="M42.6071 12.7304C37.1649 15.0895 28.0769 12.4308 28.0769 12.4308C28.0769 12.4308 35.5004 8.17448 40.92 6.26808C46.3397 4.36169 55.7381 7.13095 55.7381 7.13095C55.7381 7.13095 48.0493 10.3712 42.6071 12.7304Z"
      fill="url(#paint5_linear_16_26803)"
    />
                    <path
      d="M57.7808 24.4648C52.1765 22.5219 47.2802 14.4172 47.2802 14.4172C47.2802 14.4172 55.6271 16.3025 60.9086 18.5636C66.1901 20.8246 71.2403 29.2208 71.2403 29.2208C71.2403 29.2208 63.3851 26.4076 57.7808 24.4648Z"
      fill="url(#paint6_linear_16_26803)"
    />
                    <path
      d="M60.969 42.5011C58.5775 37.0731 61.1819 27.9694 61.1819 27.9694C61.1819 27.9694 65.4825 35.3674 67.4211 40.7755C69.3598 46.1837 66.6467 55.5984 66.6467 55.5984C66.6467 55.5984 63.3606 47.9291 60.969 42.5011Z"
      fill="url(#paint7_linear_16_26803)"
    />
                    <defs>
                        <linearGradient
        id="paint0_linear_16_26803"
        x1="6.27511"
        y1="18.4814"
        x2="13.9648"
        y2="45.5118"
        gradientUnits="userSpaceOnUse"
      >
                            <stop stop-color="white" />
                            <stop
          offset="0.3625"
          stop-color="#FDFDFD"
          stop-opacity="0.960417"
        />
                            <stop
          offset="0.805208"
          stop-color="#EBEBEB"
          stop-opacity="0.473931"
        />
                            <stop
          offset="1"
          stop-color="white"
          stop-opacity="0"
        />
                        </linearGradient>
                        <linearGradient
        id="paint1_linear_16_26803"
        x1="2.34986"
        y1="45.5777"
        x2="26.4775"
        y2="59.987"
        gradientUnits="userSpaceOnUse"
      >
                            <stop stop-color="white" />
                            <stop
          offset="0.3625"
          stop-color="#FDFDFD"
          stop-opacity="0.960417"
        />
                            <stop
          offset="0.805208"
          stop-color="#EBEBEB"
          stop-opacity="0.473931"
        />
                            <stop
          offset="1"
          stop-color="white"
          stop-opacity="0"
        />
                        </linearGradient>
                        <linearGradient
        id="paint2_linear_16_26803"
        x1="18.4555"
        y1="67.6586"
        x2="45.5871"
        y2="60.334"
        gradientUnits="userSpaceOnUse"
      >
                            <stop stop-color="white" />
                            <stop
          offset="0.3625"
          stop-color="#FDFDFD"
          stop-opacity="0.960417"
        />
                            <stop
          offset="0.805208"
          stop-color="#EBEBEB"
          stop-opacity="0.473931"
        />
                            <stop
          offset="1"
          stop-color="white"
          stop-opacity="0"
        />
                        </linearGradient>
                        <linearGradient
        id="paint3_linear_16_26803"
        x1="45.9223"
        y1="71.5366"
        x2="58.9868"
        y2="46.6551"
        gradientUnits="userSpaceOnUse"
      >
                            <stop stop-color="white" />
                            <stop
          offset="0.3625"
          stop-color="#FDFDFD"
          stop-opacity="0.960417"
        />
                            <stop
          offset="0.805208"
          stop-color="#EBEBEB"
          stop-opacity="0.473931"
        />
                            <stop
          offset="1"
          stop-color="white"
          stop-opacity="0"
        />
                        </linearGradient>
                        <linearGradient
        id="paint4_linear_16_26803"
        x1="27.736"
        y1="2.10198"
        x2="15.1114"
        y2="27.2096"
        gradientUnits="userSpaceOnUse"
      >
                            <stop stop-color="white" />
                            <stop
          offset="0.3625"
          stop-color="#FDFDFD"
          stop-opacity="0.960417"
        />
                            <stop
          offset="0.805208"
          stop-color="#EBEBEB"
          stop-opacity="0.473931"
        />
                            <stop
          offset="1"
          stop-color="white"
          stop-opacity="0"
        />
                        </linearGradient>
                        <linearGradient
        id="paint5_linear_16_26803"
        x1="55.4355"
        y1="5.972"
        x2="28.2439"
        y2="13.0707"
        gradientUnits="userSpaceOnUse"
      >
                            <stop stop-color="white" />
                            <stop
          offset="0.3625"
          stop-color="#FDFDFD"
          stop-opacity="0.960417"
        />
                            <stop
          offset="0.805208"
          stop-color="#EBEBEB"
          stop-opacity="0.473931"
        />
                            <stop
          offset="1"
          stop-color="white"
          stop-opacity="0"
        />
                        </linearGradient>
                        <linearGradient
        id="paint6_linear_16_26803"
        x1="71.8012"
        y1="28.1624"
        x2="46.9705"
        y2="15.0015"
        gradientUnits="userSpaceOnUse"
      >
                            <stop stop-color="white" />
                            <stop
          offset="0.3625"
          stop-color="#FDFDFD"
          stop-opacity="0.960417"
        />
                            <stop
          offset="0.805208"
          stop-color="#EBEBEB"
          stop-opacity="0.473931"
        />
                            <stop
          offset="1"
          stop-color="white"
          stop-opacity="0"
        />
                        </linearGradient>
                        <linearGradient
        id="paint7_linear_16_26803"
        x1="67.8038"
        y1="55.289"
        x2="60.5431"
        y2="28.1402"
        gradientUnits="userSpaceOnUse"
      >
                            <stop stop-color="white" />
                            <stop
          offset="0.3625"
          stop-color="#FDFDFD"
          stop-opacity="0.960417"
        />
                            <stop
          offset="0.805208"
          stop-color="#EBEBEB"
          stop-opacity="0.473931"
        />
                            <stop
          offset="1"
          stop-color="white"
          stop-opacity="0"
        />
                        </linearGradient>
                    </defs>
	</symbol>
	<symbol id="arr-icon" viewBox="0 0 20 20">
	<path
      d="M3.33337 4.99996C3.33337 4.26396 3.89437 3.74996 4.60537 3.74996H15.3954C16.1064 3.74996 16.6674 4.26396 16.6674 4.99996V8.33329H17.5007C18.8807 8.33329 20.0007 9.45329 20.0007 10.8333C20.0007 12.2133 18.8807 13.3333 17.5007 13.3333H16.6674V16.6666C16.6674 17.4026 16.1064 17.9166 15.3954 17.9166H4.60537C3.89437 17.9166 3.33337 17.4026 3.33337 16.6666V13.3333H2.50004C1.12004 13.3333 0.0000396729 12.2133 0.0000396729 10.8333C0.0000396729 9.45329 1.12004 8.33329 2.50004 8.33329H3.33337V4.99996ZM1.34604 9.80729C1.53537 10.0156 1.85004 10.0156 2.03937 9.80729C2.2287 9.59996 2.2287 9.24596 2.03937 9.03729L9.14737 2.56162C8.79937 2.21996 8.20004 2.21996 7.85337 2.56162L1.34604 9.03729ZM18.6534 9.80729C18.8427 10.0156 19.1574 10.0156 19.3467 9.80729C19.536 9.59996 19.536 9.24596 19.3467 9.03729L12.8394 2.56162C12.4914 2.21996 11.892 2.21996 11.5454 2.56162L18.6534 9.03729Z"
      fill="#B40C60"
    />
	</symbol>
	<symbol id="msg-icon" viewBox="0 0 20 20">
	                                        <path
      d="M16.5163 10.7826C16.8127 10.6344 17 10.3314 17 9.99999C17 9.66857 16.8127 9.36559 16.5163 9.21737L4.26634 3.09239C3.95598 2.9372 3.58325 2.98008 3.31623 3.20169C3.04921 3.42329 2.93838 3.78174 3.0337 4.11539L4.2837 8.49037C4.39102 8.866 4.73436 9.12498 5.12503 9.12498L9.12502 9.12498C9.60827 9.12498 10 9.51673 10 9.99998C10 10.4832 9.60827 10.875 9.12502 10.875L5.12503 10.875C4.73436 10.875 4.39103 11.134 4.2837 11.5096L3.0337 15.8846C2.93838 16.2182 3.04921 16.5767 3.31623 16.7983C3.58325 17.0199 3.95598 17.0628 4.26634 16.9076L16.5163 10.7826Z"
      fill="#B40C60"
    />

	</symbol>
</svg>
